<?xml version="1.0" encoding="UTF-8"?>
<!DOCTYPE svg PUBLIC "-//W3C//DTD SVG 1.1//EN" "http://www.w3.org/Graphics/SVG/1.1/DTD/svg11.dtd">
<svg xmlns="http://www.w3.org/2000/svg" version="1.1" width="500px" height="500px" style="shape-rendering:geometricPrecision; text-rendering:geometricPrecision; image-rendering:optimizeQuality; fill-rule:evenodd; clip-rule:evenodd" xmlns:xlink="http://www.w3.org/1999/xlink">
<g><path style="opacity:1" fill="#e8e8df" d="M 65.5,-0.5 C 154.833,-0.5 244.167,-0.5 333.5,-0.5C 333.833,0.166667 334.167,0.833333 334.5,1.5C 334.5,36.5 334.5,71.5 334.5,106.5C 368.835,106.667 403.168,106.5 437.5,106C 432.566,101.574 428.233,96.7405 424.5,91.5C 429.164,95.9964 433.998,100.33 439,104.5C 439.791,105.745 440.291,107.078 440.5,108.5C 439.836,148.263 439.503,188.096 439.5,228C 439.5,267.839 440.167,307.339 441.5,346.5C 441.5,346.833 441.5,347.167 441.5,347.5C 313.5,347.5 185.5,347.5 57.5,347.5C 57.5,347.167 57.5,346.833 57.5,346.5C 58.8333,291.004 59.5,235.171 59.5,179C 59.496,122.46 59.1627,65.9597 58.5,9.5C 59.2762,5.06011 61.6096,1.72678 65.5,-0.5 Z"/></g>
<g><path style="opacity:1" fill="#d9d7ca" d="M 334.5,1.5 C 364.833,31.1667 394.833,61.1667 424.5,91.5C 428.233,96.7405 432.566,101.574 437.5,106C 403.168,106.5 368.835,106.667 334.5,106.5C 334.5,71.5 334.5,36.5 334.5,1.5 Z"/></g>
<g><path style="opacity:1" fill="#f1f1e9" d="M 58.5,9.5 C 59.1627,65.9597 59.496,122.46 59.5,179C 59.5,235.171 58.8333,291.004 57.5,346.5C 57.7004,262.208 57.3671,177.874 56.5,93.5C 56.6667,67.5 56.8333,41.5 57,15.5C 57.1909,13.2922 57.6909,11.2922 58.5,9.5 Z"/></g>
<g><path style="opacity:1" fill="#9879a9" d="M 176.5,106.5 C 182.386,105.343 187.219,107.01 191,111.5C 192.073,116.045 190.907,119.879 187.5,123C 184.167,124 180.833,125 177.5,126C 175.959,127.579 174.792,129.413 174,131.5C 173.667,146.833 173.333,162.167 173,177.5C 170.61,184.397 166.776,190.397 161.5,195.5C 166.358,201.196 170.192,207.53 173,214.5C 173.045,230.567 173.712,246.567 175,262.5C 175.465,263.931 176.299,265.097 177.5,266C 182.785,266.645 187.285,268.811 191,272.5C 192.364,280.778 188.864,284.778 180.5,284.5C 166.707,282.875 158.54,275.208 156,261.5C 155.667,246.833 155.333,232.167 155,217.5C 153.622,212.792 150.788,209.292 146.5,207C 141.704,206.09 137.037,204.757 132.5,203C 127.999,197.012 128.665,191.679 134.5,187C 144.867,187.583 151.7,183.083 155,173.5C 155.333,158.167 155.667,142.833 156,127.5C 159.685,117.316 166.519,110.316 176.5,106.5 Z"/></g>
<g><path style="opacity:1" fill="#9878a8" d="M 316.5,259.5 C 316.978,242.599 317.978,225.599 319.5,208.5C 321.75,203.673 324.75,199.34 328.5,195.5C 323.255,190.418 319.421,184.418 317,177.5C 316.667,161.5 316.333,145.5 316,129.5C 312.398,125.531 307.898,123.365 302.5,123C 296.68,116.783 297.346,111.45 304.5,107C 319.462,106.276 329.296,113.109 334,127.5C 334.044,143.9 334.711,160.233 336,176.5C 340.312,184.578 347.145,188.412 356.5,188C 361.453,192.643 361.787,197.643 357.5,203C 346.893,203.209 339.393,208.043 335,217.5C 334.667,232.833 334.333,248.167 334,263.5C 328.761,280.277 317.761,286.61 301,282.5C 296.816,272.701 299.983,267.535 310.5,267C 313.584,265.315 315.584,262.815 316.5,259.5 Z"/></g>
<g><path style="opacity:0.769" fill="#efefe7" d="M 440.5,108.5 C 442.039,116.608 442.706,124.941 442.5,133.5C 441.562,204.496 441.228,275.496 441.5,346.5C 440.167,307.339 439.5,267.839 439.5,228C 439.503,188.096 439.836,148.263 440.5,108.5 Z"/></g>
<g><path style="opacity:1" fill="#997aa9" d="M 239.5,151.5 C 255.446,150.593 260.946,157.593 256,172.5C 246.877,181.15 238.877,180.15 232,169.5C 230.401,161.708 232.901,155.708 239.5,151.5 Z"/></g>
<g><path style="opacity:1" fill="#9778a8" d="M 240.5,214.5 C 245.535,213.502 249.702,214.835 253,218.5C 253.667,230.167 253.667,241.833 253,253.5C 247.667,260.167 242.333,260.167 237,253.5C 236.333,241.833 236.333,230.167 237,218.5C 238.376,217.295 239.542,215.962 240.5,214.5 Z"/></g>
<g><path style="opacity:1" fill="#a78db3" d="M 319.5,208.5 C 317.978,225.599 316.978,242.599 316.5,259.5C 316.333,244.496 316.5,229.496 317,214.5C 317.566,212.277 318.4,210.277 319.5,208.5 Z"/></g>
<g><path style="opacity:0.794" fill="#ad96b7" d="M 57.5,347.5 C 185.5,347.5 313.5,347.5 441.5,347.5C 441.832,395.336 441.499,443.003 440.5,490.5C 440.5,443.167 440.5,395.833 440.5,348.5C 313.167,348.5 185.833,348.5 58.5,348.5C 58.5,395.833 58.5,443.167 58.5,490.5C 57.5012,443.003 57.1679,395.336 57.5,347.5 Z"/></g>
<g><path style="opacity:1" fill="#9777a8" d="M 440.5,490.5 C 439.225,494.773 436.558,497.773 432.5,499.5C 310.5,499.5 188.5,499.5 66.5,499.5C 62.4418,497.773 59.7751,494.773 58.5,490.5C 58.5,443.167 58.5,395.833 58.5,348.5C 185.833,348.5 313.167,348.5 440.5,348.5C 440.5,395.833 440.5,443.167 440.5,490.5 Z"/></g>
<g><path style="opacity:1" fill="#fdfdfd" d="M 150.5,457.5 C 148.477,463.694 144.477,468.194 138.5,471C 123.306,475.851 109.306,473.685 96.5,464.5C 98.3056,461.528 100.306,458.695 102.5,456C 106.652,457.492 110.986,458.825 115.5,460C 119.833,460.667 124.167,460.667 128.5,460C 133.201,458.472 135.868,455.305 136.5,450.5C 137.498,427.673 137.831,404.673 137.5,381.5C 141.833,381.5 146.167,381.5 150.5,381.5C 150.5,406.833 150.5,432.167 150.5,457.5 Z"/></g>
<g><path style="opacity:1" fill="#fbfafc" d="M 192.5,381.5 C 202.233,380.734 211.567,382.234 220.5,386C 218.626,389.581 216.626,393.081 214.5,396.5C 207.81,393.07 200.81,392.57 193.5,395C 183.9,403.171 184.233,410.838 194.5,418C 203.409,421.7 211.576,426.533 219,432.5C 227.974,446.616 225.808,458.783 212.5,469C 199.366,475.201 186.366,474.868 173.5,468C 172.313,463.901 172.979,460.068 175.5,456.5C 183.671,460.876 192.338,462.376 201.5,461C 210.306,456.251 212.472,449.417 208,440.5C 199.916,435.541 191.749,430.707 183.5,426C 168.59,411.823 168.923,398.156 184.5,385C 187.476,384.295 190.142,383.129 192.5,381.5 Z"/></g>
<g><path style="opacity:1" fill="#fcfbfc" d="M 309.5,406.5 C 309.41,409.152 310.076,411.485 311.5,413.5C 312.489,418.975 312.822,424.642 312.5,430.5C 311.551,434.657 310.884,438.99 310.5,443.5C 304.832,465.685 290.498,475.519 267.5,473C 254.17,469.669 245.336,461.502 241,448.5C 237.074,435.227 236.74,421.893 240,408.5C 249.59,384.272 266.757,376.439 291.5,385C 300.278,389.937 306.278,397.103 309.5,406.5 Z"/></g>
<g><path style="opacity:1" fill="#e5deea" d="M 150.5,457.5 C 150.5,432.167 150.5,406.833 150.5,381.5C 146.167,381.5 141.833,381.5 137.5,381.5C 137.831,404.673 137.498,427.673 136.5,450.5C 136.5,427.167 136.5,403.833 136.5,380.5C 141.5,380.5 146.5,380.5 151.5,380.5C 151.831,406.339 151.498,432.005 150.5,457.5 Z"/></g>
<g><path style="opacity:1" fill="#fefdfe" d="M 381.5,440.5 C 382.11,441.391 382.443,442.391 382.5,443.5C 382.56,444.043 382.893,444.376 383.5,444.5C 384.5,424.178 384.833,403.844 384.5,383.5C 388.833,383.5 393.167,383.5 397.5,383.5C 397.5,413.167 397.5,442.833 397.5,472.5C 392.57,472.803 387.737,472.469 383,471.5C 371.821,451.806 360.655,432.139 349.5,412.5C 349.44,411.957 349.107,411.624 348.5,411.5C 347.5,431.822 347.167,452.156 347.5,472.5C 342.833,472.5 338.167,472.5 333.5,472.5C 333.5,442.5 333.5,412.5 333.5,382.5C 338.762,382.195 343.928,382.529 349,383.5C 359.355,402.888 370.188,421.888 381.5,440.5 Z"/></g>
<g><path style="opacity:1" fill="#a387b2" d="M 383.5,382.5 C 383.83,403.007 383.497,423.34 382.5,443.5C 382.443,442.391 382.11,441.391 381.5,440.5C 382.167,421.167 382.833,401.833 383.5,382.5 Z"/></g>
<g><path style="opacity:1" fill="#eae4ee" d="M 383.5,382.5 C 388.5,382.5 393.5,382.5 398.5,382.5C 398.831,412.671 398.498,442.671 397.5,472.5C 397.5,442.833 397.5,413.167 397.5,383.5C 393.167,383.5 388.833,383.5 384.5,383.5C 384.833,403.844 384.5,424.178 383.5,444.5C 382.893,444.376 382.56,444.043 382.5,443.5C 383.497,423.34 383.83,403.007 383.5,382.5 Z"/></g>
<g><path style="opacity:1" fill="#b49dc0" d="M 268.5,394.5 C 270.473,393.837 272.639,393.504 275,393.5C 278.477,393.328 281.644,393.994 284.5,395.5C 283.178,395.33 282.011,395.663 281,396.5C 277.164,394.611 272.997,393.945 268.5,394.5 Z"/></g>
<g><path style="opacity:1" fill="#9778a8" d="M 268.5,394.5 C 272.997,393.945 277.164,394.611 281,396.5C 282.011,395.663 283.178,395.33 284.5,395.5C 291.392,400.247 295.558,406.914 297,415.5C 297.776,424.874 297.442,434.207 296,443.5C 290.925,458.954 280.758,464.12 265.5,459C 257.952,453.065 253.785,445.232 253,435.5C 250.985,422.906 253.319,411.24 260,400.5C 262.279,397.619 265.112,395.619 268.5,394.5 Z"/></g>
<g><path style="opacity:1" fill="#cec0d6" d="M 309.5,406.5 C 310.924,408.515 311.59,410.848 311.5,413.5C 310.076,411.485 309.41,409.152 309.5,406.5 Z"/></g>
<g><path style="opacity:1" fill="#e0d7e5" d="M 349.5,412.5 C 348.833,432.5 348.167,452.5 347.5,472.5C 347.167,452.156 347.5,431.822 348.5,411.5C 349.107,411.624 349.44,411.957 349.5,412.5 Z"/></g>
<g><path style="opacity:1" fill="#d2c5d9" d="M 312.5,430.5 C 312.665,433.85 312.498,437.183 312,440.5C 311.768,441.737 311.268,442.737 310.5,443.5C 310.884,438.99 311.551,434.657 312.5,430.5 Z"/></g>
</svg>
