<svg xmlns="http://www.w3.org/2000/svg" height="800" width="1200" viewBox="-89.985 -47.7 779.87 286.2"><circle fill="#888" r="72.4" cy="118.4" cx="527.5"/><path fill="#fff" d="M527.5 161.1c23.6 0 42.7-19.1 42.7-42.7s-19.1-42.7-42.7-42.7-42.7 19.1-42.7 42.7 19.1 42.7 42.7 42.7z"/><circle fill="#888" r="72.4" cy="118.4" cx="374"/><path fill="#fff" d="M374 161.1c23.6 0 42.7-19.1 42.7-42.7S397.6 75.7 374 75.7s-42.7 19.1-42.7 42.7 19.1 42.7 42.7 42.7z"/><path fill="#888" d="M294.9 117.8v.6c0 40-32.4 72.4-72.4 72.4-40 0-72.4-32.4-72.4-72.4 0-40 32.4-72.4 72.4-72.4 16.4 0 31.5 5.5 43.7 14.6V14.4A14.34 14.34 0 01280.6 0c7.9 0 14.4 6.5 14.4 14.4v102.7c0 .2 0 .5-.1.7z"/><circle fill="#fff" r="42.7" cy="118.4" cx="222.5"/><circle fill="#9c5789" r="72.4" cy="118.2" cx="72.4"/><circle fill="#fff" r="42.7" cy="118.5" cx="71.7"/></svg>