<?xml version="1.0" encoding="UTF-8"?>
<!DOCTYPE svg PUBLIC "-//W3C//DTD SVG 1.1//EN" "http://www.w3.org/Graphics/SVG/1.1/DTD/svg11.dtd">
<svg xmlns="http://www.w3.org/2000/svg" version="1.1" width="1864px" height="435px" style="shape-rendering:geometricPrecision; text-rendering:geometricPrecision; image-rendering:optimizeQuality; fill-rule:evenodd; clip-rule:evenodd" xmlns:xlink="http://www.w3.org/1999/xlink">
<g><path style="opacity:0.996" fill="#17a6a6" d="M 389.5,-0.5 C 390.833,-0.5 392.167,-0.5 393.5,-0.5C 391.547,32.5027 389.547,65.5027 387.5,98.5C 441.476,88.3714 495.476,78.3714 549.5,68.5C 532.657,162.547 515.491,256.547 498,350.5C 428.044,378.424 358.211,406.424 288.5,434.5C 287.5,434.5 286.5,434.5 285.5,434.5C 285.5,293.833 285.5,153.167 285.5,12.5C 320.358,8.59174 355.025,4.2584 389.5,-0.5 Z M 459.5,181.5 C 460.043,181.56 460.376,181.893 460.5,182.5C 455.828,216.543 450.995,250.543 446,284.5C 421.962,293.124 397.795,301.457 373.5,309.5C 373.167,307.167 372.833,304.833 372.5,302.5C 374.928,269.168 377.262,235.835 379.5,202.5C 406.437,196.1 433.104,189.1 459.5,181.5 Z"/></g>
<g><path style="opacity:0.994" fill="#17a6a6" d="M -0.5,68.5 C 87.4517,84.6858 175.285,101.352 263,118.5C 263.5,223.833 263.667,329.166 263.5,434.5C 262.833,434.5 262.167,434.5 261.5,434.5C 191.589,406.554 121.589,378.554 51.5,350.5C 34.1494,257.716 16.8161,165.049 -0.5,72.5C -0.5,71.1667 -0.5,69.8333 -0.5,68.5 Z M 89.5,182.5 C 116.216,188.961 142.882,195.627 169.5,202.5C 171.833,235.828 174.166,269.161 176.5,302.5C 176.167,304.833 175.833,307.167 175.5,309.5C 151.205,301.457 127.038,293.124 103,284.5C 97.6836,250.638 93.1836,216.638 89.5,182.5 Z"/></g>
<g><path style="opacity:0.982" fill="#18a6a6" d="M 723.5,175.5 C 762.309,173.66 784.476,191.994 790,230.5C 792.47,249.188 790.804,267.522 785,285.5C 772.271,311.452 751.438,322.619 722.5,319C 694.948,312.777 679.115,295.61 675,267.5C 671.669,246.14 674.002,225.474 682,205.5C 690.977,188.677 704.81,178.677 723.5,175.5 Z M 727.5,196.5 C 750.327,196.82 762.827,208.487 765,231.5C 765.667,241.833 765.667,252.167 765,262.5C 761.273,293.612 744.773,304.112 715.5,294C 706.495,285.824 701.328,275.657 700,263.5C 699.333,252.833 699.333,242.167 700,231.5C 701.159,220.35 705.659,210.85 713.5,203C 717.877,199.975 722.544,197.808 727.5,196.5 Z"/></g>
<g><path style="opacity:0.982" fill="#18a6a6" d="M 1239.5,175.5 C 1257.3,173.179 1273.3,177.346 1287.5,188C 1297.18,198.183 1302.51,210.35 1303.5,224.5C 1295.16,224.666 1286.83,224.5 1278.5,224C 1275.36,200.923 1262.36,191.923 1239.5,197C 1227.21,201.978 1220.04,211.145 1218,224.5C 1216.51,237.132 1216.18,249.799 1217,262.5C 1220.32,294.837 1237.15,305.337 1267.5,294C 1273.64,287.942 1277.3,280.609 1278.5,272C 1286.83,271.5 1295.16,271.334 1303.5,271.5C 1299.24,303.482 1280.91,319.482 1248.5,319.5C 1215.12,317.624 1196.28,299.958 1192,266.5C 1191.33,253.833 1191.33,241.167 1192,228.5C 1195.48,199.428 1211.31,181.762 1239.5,175.5 Z"/></g>
<g><path style="opacity:0.987" fill="#18a6a6" d="M 1649.5,175.5 C 1688.72,173.552 1711.89,191.886 1719,230.5C 1722.59,252.654 1719.26,273.654 1709,293.5C 1692.36,316.052 1670.2,324.219 1642.5,318C 1617.12,310.127 1602.28,292.96 1598,266.5C 1594.56,245.783 1596.89,225.783 1605,206.5C 1615.06,189.263 1629.9,178.93 1649.5,175.5 Z M 1654.5,202.5 C 1667.41,201.919 1676.24,207.585 1681,219.5C 1682.47,223.723 1683.47,228.057 1684,232.5C 1684.67,242.167 1684.67,251.833 1684,261.5C 1683.26,271.751 1679.42,280.585 1672.5,288C 1653.07,297.037 1640.23,291.204 1634,270.5C 1630.71,255.169 1630.71,239.836 1634,224.5C 1636.65,213.028 1643.48,205.694 1654.5,202.5 Z"/></g>
<g><path style="opacity:0.985" fill="#18a6a6" d="M 824.5,177.5 C 844.836,177.333 865.169,177.5 885.5,178C 914.816,182.799 925.982,199.632 919,228.5C 915.695,235.639 910.528,240.972 903.5,244.5C 921.211,252.925 928.044,266.925 924,286.5C 919.116,305.214 906.95,315.381 887.5,317C 866.503,317.5 845.503,317.667 824.5,317.5C 824.5,270.833 824.5,224.167 824.5,177.5 Z M 849.5,197.5 C 857.84,197.334 866.173,197.5 874.5,198C 893.535,198.899 900.035,208.399 894,226.5C 888.829,232.999 881.995,236.166 873.5,236C 865.507,236.5 857.507,236.666 849.5,236.5C 849.5,223.5 849.5,210.5 849.5,197.5 Z M 849.5,254.5 C 859.172,254.334 868.839,254.5 878.5,255C 892.21,255.377 899.21,262.377 899.5,276C 899.147,288.353 892.814,295.353 880.5,297C 870.172,297.5 859.839,297.666 849.5,297.5C 849.5,283.167 849.5,268.833 849.5,254.5 Z"/></g>
<g><path style="opacity:0.973" fill="#18a6a6" d="M 1010.5,177.5 C 1018.83,177.5 1027.17,177.5 1035.5,177.5C 1035.67,213.502 1035.5,249.502 1035,285.5C 1028.85,308.958 1013.51,320.291 989,319.5C 959.733,319.968 944.566,305.634 943.5,276.5C 951.833,276.5 960.167,276.5 968.5,276.5C 968.201,290.866 975.201,298.533 989.5,299.5C 1000.88,298.619 1007.71,292.619 1010,281.5C 1010.5,246.835 1010.67,212.168 1010.5,177.5 Z"/></g>
<g><path style="opacity:0.972" fill="#17a6a6" d="M 1072.5,177.5 C 1103.17,177.5 1133.83,177.5 1164.5,177.5C 1164.5,184.167 1164.5,190.833 1164.5,197.5C 1142.17,197.5 1119.83,197.5 1097.5,197.5C 1097.5,210.167 1097.5,222.833 1097.5,235.5C 1116.83,235.5 1136.17,235.5 1155.5,235.5C 1155.5,242.167 1155.5,248.833 1155.5,255.5C 1136.17,255.5 1116.83,255.5 1097.5,255.5C 1097.5,269.5 1097.5,283.5 1097.5,297.5C 1120.17,297.5 1142.83,297.5 1165.5,297.5C 1165.5,304.167 1165.5,310.833 1165.5,317.5C 1134.5,317.5 1103.5,317.5 1072.5,317.5C 1072.5,270.833 1072.5,224.167 1072.5,177.5 Z"/></g>
<g><path style="opacity:0.971" fill="#17a6a6" d="M 1322.5,177.5 C 1359.83,177.5 1397.17,177.5 1434.5,177.5C 1434.5,184.167 1434.5,190.833 1434.5,197.5C 1419.83,197.5 1405.17,197.5 1390.5,197.5C 1390.5,237.5 1390.5,277.5 1390.5,317.5C 1382.17,317.5 1373.83,317.5 1365.5,317.5C 1365.5,277.5 1365.5,237.5 1365.5,197.5C 1351.17,197.5 1336.83,197.5 1322.5,197.5C 1322.5,190.833 1322.5,184.167 1322.5,177.5 Z"/></g>
<g><path style="opacity:0.987" fill="#17a6a6" d="M 1459.5,177.5 C 1481.17,177.333 1502.84,177.5 1524.5,178C 1535.09,178.751 1544.75,182.084 1553.5,188C 1564.98,198.456 1568.82,211.29 1565,226.5C 1562.67,236.165 1556.83,242.665 1547.5,246C 1562.03,250.864 1569.36,261.03 1569.5,276.5C 1567.69,301.812 1554.02,315.312 1528.5,317C 1505.5,317.5 1482.5,317.667 1459.5,317.5C 1459.5,270.833 1459.5,224.167 1459.5,177.5 Z M 1494.5,204.5 C 1503.91,204.083 1513.25,204.583 1522.5,206C 1528.76,208.511 1531.76,213.178 1531.5,220C 1531.34,229.16 1526.67,234.16 1517.5,235C 1509.84,235.5 1502.17,235.666 1494.5,235.5C 1494.5,225.167 1494.5,214.833 1494.5,204.5 Z M 1494.5,258.5 C 1504.91,258.074 1515.25,258.574 1525.5,260C 1531.68,263.183 1534.68,268.349 1534.5,275.5C 1534.44,283.058 1530.78,287.891 1523.5,290C 1513.84,290.5 1504.17,290.666 1494.5,290.5C 1494.5,279.833 1494.5,269.167 1494.5,258.5 Z"/></g>
<g><path style="opacity:0.986" fill="#18a6a6" d="M 1863.5,315.5 C 1863.5,316.167 1863.5,316.833 1863.5,317.5C 1850.15,317.833 1836.82,317.499 1823.5,316.5C 1816,301.5 1808.5,286.5 1801,271.5C 1793.5,286.5 1786,301.5 1778.5,316.5C 1765.17,317.833 1751.83,317.833 1738.5,316.5C 1751.38,293.237 1764.38,270.07 1777.5,247C 1764.97,224.102 1752.3,201.269 1739.5,178.5C 1752.73,177.178 1765.9,177.178 1779,178.5C 1786.33,193.167 1793.67,207.833 1801,222.5C 1808.44,207.956 1815.61,193.289 1822.5,178.5C 1835.83,177.167 1849.17,177.167 1862.5,178.5C 1849.88,201.577 1836.88,224.411 1823.5,247C 1836.73,269.978 1850.07,292.812 1863.5,315.5 Z"/></g>
</svg>
