<svg xmlns="http://www.w3.org/2000/svg" xmlns:xlink="http://www.w3.org/1999/xlink" height="800" width="1200" version="1.0" viewBox="-38.4 -64 332.8 384"><defs><linearGradient id="f"><stop offset="0" stop-color="#fce94f"/><stop offset=".5" stop-color="#fce94f"/><stop offset=".75" stop-color="#edd400"/><stop offset="1" stop-color="#c4a000"/></linearGradient><linearGradient id="d"><stop offset="0" stop-color="#fff"/><stop offset=".786" stop-color="#edd400"/><stop offset="1" stop-color="#fff"/></linearGradient><linearGradient id="m"><stop offset="0" stop-color="#fff"/><stop offset="1" stop-color="#eeeeec"/></linearGradient><linearGradient id="a"><stop offset="0" stop-color="#fef8c4"/><stop offset="1" stop-color="#edd400"/></linearGradient><linearGradient id="b"><stop offset="0" stop-color="#fff"/><stop offset="1" stop-color="#fff" stop-opacity="0"/></linearGradient><linearGradient id="l"><stop offset="0" stop-color="#ff6c6c"/><stop offset="1" stop-color="#c00"/></linearGradient><linearGradient id="i"><stop offset="0" stop-color="#fff5ac"/><stop offset="1" stop-color="#edd400"/></linearGradient><linearGradient id="k"><stop offset="0"/><stop offset="1" stop-opacity="0"/></linearGradient><linearGradient id="j"><stop offset="0" stop-color="#fff"/><stop offset="1" stop-color="#fff" stop-opacity="0"/></linearGradient><linearGradient id="h"><stop offset="0"/><stop offset="1" stop-opacity="0"/></linearGradient><linearGradient id="c"><stop offset="0" stop-color="#fff"/><stop offset="1" stop-color="#fce94f"/></linearGradient><linearGradient id="g"><stop offset="0" stop-color="#fff"/><stop offset="1" stop-color="#fce94f"/></linearGradient><linearGradient id="e"><stop offset="0" stop-color="#c4a000"/><stop offset=".206" stop-color="#edd400"/><stop offset=".5" stop-color="#fce94f"/><stop offset=".75" stop-color="#edd400"/><stop offset="1" stop-color="#c4a000"/></linearGradient><linearGradient gradientTransform="matrix(12 0 0 6.7873 -165.333 -255.733)" gradientUnits="userSpaceOnUse" xlink:href="#a" id="q" y2="54.18" x2="42.231" y1="37.678" x1="21"/><linearGradient gradientTransform="matrix(1.77778 0 0 4.44444 33.778 -186.267)" gradientUnits="userSpaceOnUse" xlink:href="#b" id="A" y2="31" x2="25" y1="26" x1="21"/><linearGradient gradientTransform="matrix(1.77778 0 0 4.44444 129.778 -185.778)" gradientUnits="userSpaceOnUse" xlink:href="#b" id="C" y2="31" x2="25" y1="26" x1="21"/><linearGradient gradientTransform="matrix(4.90667 0 0 4.74074 0 -199.407)" gradientUnits="userSpaceOnUse" xlink:href="#c" id="t" y2="47.688" x2="44.565" y1="14" x1="12"/><linearGradient gradientTransform="matrix(2.96296 0 0 5.92592 54.519 -211.26)" gradientUnits="userSpaceOnUse" xlink:href="#b" id="E" y2="31" x2="25" y1="26" x1="21"/><linearGradient gradientTransform="translate(0 -208) scale(5.33333)" gradientUnits="userSpaceOnUse" xlink:href="#d" id="J" y2="35.395" x2="41.661" y1="12.359" x1="40.036"/><linearGradient gradientTransform="translate(0 -208) scale(5.33333)" gradientUnits="userSpaceOnUse" xlink:href="#e" id="r" y2="28" x2="39" y1="27" x1="3"/><linearGradient gradientTransform="translate(0 -208) scale(5.33333)" gradientUnits="userSpaceOnUse" xlink:href="#f" id="o" y2="39" x2="38" y1="39" x1="8"/><radialGradient gradientTransform="matrix(5.86493 -14.07582 -10 -10.66667 103.638 316.78)" gradientUnits="userSpaceOnUse" xlink:href="#g" id="y" fy="12.744" fx="23.078" r="3.5" cy="12.744" cx="23.078"/><radialGradient gradientTransform="matrix(1.65517 0 0 .73563 86.437 -126.345)" gradientUnits="userSpaceOnUse" xlink:href="#h" id="v" fy="19.5" fx="23.5" r="14.5" cy="19.5" cx="23.5"/><radialGradient gradientTransform="matrix(3.73333 0 0 -3.87879 34.933 -73.697)" gradientUnits="userSpaceOnUse" xlink:href="#i" id="x" fy="16.75" fx="21.625" r="5.5" cy="16.75" cx="21.625"/><radialGradient gradientTransform="matrix(14 14.63659 -2.30883 11.71736 -26.538 -554.336)" gradientUnits="userSpaceOnUse" xlink:href="#j" id="u" fy="27.331" fx="10.451" r="7" cy="27.331" cx="10.451"/><radialGradient gradientTransform="matrix(15.55556 0 0 5.77778 -248 -209.111)" gradientUnits="userSpaceOnUse" xlink:href="#k" id="n" fy="38.5" fx="24" r="6" cy="38.5" cx="24"/><radialGradient gradientTransform="matrix(2.94253 0 0 1.28736 58.85 -17.103)" gradientUnits="userSpaceOnUse" xlink:href="#h" id="p" fy="19.5" fx="23.5" r="14.5" cy="19.5" cx="23.5"/><radialGradient gradientTransform="matrix(3.2 0 0 6.22222 1.067 -239.156)" gradientUnits="userSpaceOnUse" xlink:href="#l" id="z" fy="28.5" fx="23" r="3" cy="28.5" cx="23"/><radialGradient gradientTransform="matrix(3.2 0 0 6.22222 97.067 -238.667)" gradientUnits="userSpaceOnUse" xlink:href="#l" id="B" fy="28.5" fx="23" r="3" cy="28.5" cx="23"/><radialGradient gradientTransform="matrix(5.33333 0 0 8.2963 0 -281.778)" gradientUnits="userSpaceOnUse" xlink:href="#l" id="D" fy="28.5" fx="23" r="3" cy="28.5" cx="23"/><radialGradient gradientTransform="matrix(7.61904 12.04623 -9.88272 8.62259 177.85 -446.034)" gradientUnits="userSpaceOnUse" xlink:href="#g" id="w" fy="21.094" fx="13.071" r="15.5" cy="21.094" cx="13.071"/><radialGradient gradientTransform="matrix(.52907 1.26976 -1.31246 .78747 23.92 -1.007)" gradientUnits="userSpaceOnUse" xlink:href="#m" id="I" fy="16.969" fx="3.5" r="3.048" cy="16.969" cx="3.5"/><radialGradient gradientTransform="matrix(.52907 1.26976 -1.31246 .78747 23.92 -1.007)" gradientUnits="userSpaceOnUse" xlink:href="#m" id="F" fy="16.969" fx="3.5" r="3.048" cy="16.969" cx="3.5"/><radialGradient gradientTransform="matrix(.52907 1.26976 -1.31246 .78747 23.92 -1.007)" gradientUnits="userSpaceOnUse" xlink:href="#m" id="G" fy="16.969" fx="3.5" r="3.048" cy="16.969" cx="3.5"/><radialGradient gradientTransform="matrix(.52907 1.26976 -1.31246 .78747 23.92 -1.007)" gradientUnits="userSpaceOnUse" xlink:href="#m" id="H" fy="16.969" fx="3.5" r="3.048" cy="16.969" cx="3.5"/><radialGradient gradientTransform="matrix(1.9025 2.4521 -3.01646 3.88788 86.747 -183.966)" gradientUnits="userSpaceOnUse" xlink:href="#c" id="s" fy="8.88" fx="13.819" r="14.5" cy="8.88" cx="13.819"/></defs><path style="marker:none" d="M218.667 13.333C218.667 32.47 176.853 48 125.333 48S32 32.47 32 13.333c0-19.136 41.813-34.666 93.333-34.666 51.52 0 93.334 15.53 93.334 34.666z" color="#000" overflow="visible" opacity=".6" fill="url(#n)" fill-rule="evenodd" transform="translate(0 208)"/><path style="marker:none" d="M200 8c0 14.72-34.645 26.667-77.333 26.667C79.979 34.667 45.333 22.72 45.333 8c0-14.72 34.646-26.667 77.334-26.667S200-6.72 200 8z" color="#000" overflow="visible" fill="url(#o)" fill-rule="evenodd" stroke="#c4a000" stroke-width="5.333" transform="translate(0 208)"/><path style="marker:none" d="M170.667 8c0 10.304-19.115 18.667-42.667 18.667-23.552 0-42.667-8.363-42.667-18.667 0-10.304 19.115-18.667 42.667-18.667 23.552 0 42.667 8.363 42.667 18.667z" color="#000" overflow="visible" opacity=".2" fill="url(#p)" fill-rule="evenodd" transform="translate(0 208)"/><path style="marker:none" d="M194.667 5.578c0 13.113-32.256 23.755-72 23.755s-72-10.642-72-23.755 32.256-23.756 72-23.756 72 10.643 72 23.756z" color="#000" overflow="visible" fill="none" stroke="url(#q)" stroke-width="5.333" transform="translate(0 208)"/><path style="marker:none" d="M160 208c0 8.832-16.725 16-37.333 16-20.608 0-37.334-7.168-37.334-16s16.726-16 37.334-16c20.608 0 37.333 7.168 37.333 16z" color="#000" overflow="visible" fill="#c4a000" fill-rule="evenodd"/><path style="marker:none" d="M120.94-136c-40.539 0-73.435 16.692-73.435 37.301 0 5.42-.814 16.941.595 30.443-13.271-5.114-13.256-16.61-14.42-30.276H18.816c-.041.932-.148 1.902-.148 2.844C23.56-35.708 70.535.399 120.94 2.667c20.27 0 45.454-5.5 61.097-32.283s12.338-58.778 12.338-69.083c0-20.61-32.896-37.301-73.435-37.301z" color="#000" overflow="visible" fill="url(#r)" fill-rule="evenodd" stroke="#c4a000" stroke-width="5.333" transform="translate(0 208)"/><path style="marker:none" transform="matrix(3.80952 0 0 16 36.952 -184)" d="M26 17.5a3.5.5 0 11-7 0 3.5.5 0 117 0z" color="#000" overflow="visible" fill="#c4a000" fill-rule="evenodd" stroke="#edd400" stroke-width=".683"/><path style="marker:none" d="M101.333-106.667c0 14.72 60.8 26.667 24 26.667s-66.666-11.947-66.666-26.667c0-14.72 29.866-26.666 66.666-26.666s-24 11.946-24 26.666z" color="#000" overflow="visible" opacity=".6" fill="url(#s)" fill-rule="evenodd" transform="translate(0 208)"/><path style="marker:none" d="M184-109.333C184-97.557 156.523-88 122.667-88c-33.856 0-61.334-9.557-61.334-21.333 0-11.776 27.478-21.334 61.334-21.334S184-121.109 184-109.333z" color="#000" overflow="visible" fill="none" stroke="url(#t)" stroke-width="5.333" transform="translate(0 208)"/><path style="marker:none" d="M56.667-106.667c0 4.883-4.091 30.718-3.334 42.667.379 5.974-26.105-21.932-21.666-26.667 10-10.666-5 0-5 5.334 0 42.998 50.772 69.717 58.092 74.202 7.321 4.485 15.034 5.798 21.908 5.798l21.333-80c-23.722 0-65.272-8.628-71.333-21.334z" color="#000" overflow="visible" opacity=".6" fill="url(#u)" fill-rule="evenodd" transform="translate(0 208)"/><path style="marker:none" d="M189.333 101.218c0 13.312-29.866 24.115-66.666 24.115S56 114.53 56 101.218c0-13.312 29.867-24.115 66.667-24.115s66.666 10.803 66.666 24.115z" color="#000" overflow="visible" fill="none" stroke="#c4a000" stroke-width="5.333"/><path style="marker:none" d="M149.333-112c0 5.888-10.752 10.667-24 10.667s-24-4.779-24-10.667 10.752-10.667 24-10.667 24 4.779 24 10.667z" color="#000" overflow="visible" opacity=".1" fill="url(#v)" fill-rule="evenodd" transform="translate(0 208)"/><path style="marker:none" d="M121.205-130.667c-37.46 0-68.26 14.996-68.26 34.024l.96 33.976c-13.844-2.262-21.976-11.5-22.71-30-4.776-1.71-5.204.595-7.195 1.5 8.678 54.778 50.426 86.285 97.205 88.5 18.73 0 42.077-5.106 56.532-29.833 14.455-24.727 11.306-54.153 11.306-63.667 0-19.028-30.378-34.5-67.838-34.5z" color="#000" overflow="visible" fill="none" stroke="url(#w)" stroke-width="5.333" transform="translate(0 208)"/><path style="marker:none" d="M141.333-133.333c0-7.36-8.362-13.334-18.666-13.334S104-140.693 104-133.333c0 7.36 8.363 24 18.667 24 10.304 0 18.666-16.64 18.666-24z" color="#000" overflow="visible" fill="url(#x)" fill-rule="evenodd" stroke="#c4a000" stroke-width="5.333" transform="translate(0 208)"/><path style="marker:none" d="M136-131.81c0-5.257-5.973-9.523-13.333-9.523s-13.334 4.266-13.334 9.523c0 5.258 5.974 17.143 13.334 17.143 7.36 0 13.333-11.885 13.333-17.143z" color="#000" overflow="visible" fill="none" stroke="url(#y)" stroke-width="5.333" transform="translate(0 208)"/><path d="M74.667-77.822l-8 16 8 16 8-16z" fill="url(#z)" stroke="#a40000" stroke-width="5.333" stroke-linecap="round" transform="translate(0 208)"/><path d="M74.667-75.156l-5.334 13.334 5.334 13.333z" fill="url(#A)" transform="translate(0 208)"/><path d="M170.667-77.333l-8 16 8 16 8-16z" fill="url(#B)" stroke="#a40000" stroke-width="5.333" stroke-linecap="round" transform="translate(0 208)"/><path d="M170.667-74.667l-5.334 13.334L170.667-48z" fill="url(#C)" transform="translate(0 208)"/><path d="M122.667-66.667l-13.334 21.334L122.667-24 136-45.333z" fill="url(#D)" stroke="#a40000" stroke-width="5.333" stroke-linecap="round" transform="translate(0 208)"/><path d="M122.667-63.111l-8.89 17.778 8.89 17.777z" fill="url(#E)" transform="translate(0 208)"/><path style="marker:none" transform="matrix(5.33333 0 0 3.55556 8 36.444)" d="M5 20.5a2 1.5 0 11-4 0 2 1.5 0 114 0z" color="#000" overflow="visible" fill="#2e3436" fill-rule="evenodd" stroke="#c4a000" stroke-width="1.225"/><path style="marker:none" transform="matrix(9.6 0 0 8 -8.533 -114.667)" d="M7 18a2.5 3 0 11-5 0 2.5 3 0 115 0z" color="#000" overflow="visible" fill="url(#F)" fill-rule="evenodd"/><path style="marker:none" transform="matrix(7.46667 0 0 6.22222 -9.6 -56)" d="M7 18a2.5 3 0 11-5 0 2.5 3 0 115 0z" color="#000" overflow="visible" fill="url(#G)" fill-rule="evenodd"/><path style="marker:none" transform="matrix(5.33333 0 0 4.44444 5.333 -2.667)" d="M7 18a2.5 3 0 11-5 0 2.5 3 0 115 0z" color="#000" overflow="visible" fill="url(#H)" fill-rule="evenodd"/><path style="marker:none" transform="matrix(4.26667 0 0 3.55556 2.133 32)" d="M7 18a2.5 3 0 11-5 0 2.5 3 0 115 0z" color="#000" overflow="visible" fill="url(#I)" fill-rule="evenodd"/><path style="marker:none" d="M34.667 2.667C19.947 2.667 8 14.613 8 29.333c0 3.762.926 7.254 2.333 10.5C5.698 43.748 2.667 49.463 2.667 56c0 8.016 4.457 14.855 11 18.5-.172.94-.334 1.844-.334 2.833 0 2.524.625 4.877 1.667 7C10.844 86.593 8 90.94 8 96c0 7.36 5.973 13.333 13.333 13.333S34.667 103.36 34.667 96c0-1.222-.192-2.376-.5-3.5 6.434-2.073 11.166-8.046 11.166-15.167 0-3.695-1.227-7.123-3.333-9.833A21.466 21.466 0 0045.333 56c0-.74-.26-1.447-.333-2.167 9.57-4.05 16.333-13.46 16.333-24.5 0-14.72-11.946-26.666-26.666-26.666z" color="#000" overflow="visible" fill="none" stroke="#babdb6" stroke-width="5.333"/><path style="marker:none" d="M34.667 7.667C22.743 7.667 13 17.41 13 29.333c0 4.472 1.504 8.553 3.833 12-5.43 2.655-9.166 8.219-9.166 14.667 0 7.57 5.176 13.817 12.166 15.667-.996 1.665-1.666 3.586-1.666 5.666 0 6.134 5.033 11.167 11.166 11.167 6.134 0 11.167-5.033 11.167-11.167 0-4.053-2.255-7.559-5.5-9.5 3.213-2.983 5.333-7.106 5.333-11.833 0-1.991-.346-3.902-1-5.667 9.656-2.154 17-10.697 17-21 0-11.923-9.743-21.666-21.666-21.666zM21.333 87.5a8.48 8.48 0 00-8.5 8.5c0 4.71 3.79 8.5 8.5 8.5s8.5-3.79 8.5-8.5-3.79-8.5-8.5-8.5z" color="#000" overflow="visible" fill="none" stroke="#fff" stroke-width="4.444"/><path d="M218.667 56c-19.206 0-32 15.461-32 34.667L192 101.333C192 85.517 197.083 72 213.333 72c16.251 0 29.334 12.684 29.334 28.5v48.333c-2.017 25.12-39.39 30.08-59 33.834A68.499 68.499 0 01176 192c25.99-7.042 74.577-7.397 77.333-42.667V90.667C253.333 71.46 237.872 56 218.667 56z" fill="#edd400" stroke="#c4a000" stroke-width="5.333" stroke-linecap="round" stroke-linejoin="round"/><path d="M192-122.667c16-42.666 54.19-18.857 55.62.667l-.477 66.667c0 16.19-28.476 28.666-65.81 34" opacity=".8" fill="none" stroke="url(#J)" stroke-width="5.333" stroke-linecap="round" stroke-linejoin="round" transform="translate(0 208)"/></svg>